PathFileType	4	(X/Y/Z)	8_coords_data.trc
DataRate	CameraRate	NumFrames	NumMarkers	Units	OrigDataRate	OrigDataStartFrame	OrigNumFrames
30.0	30.0	6	21	m	30.0	52	62
Frame#	Time	THUMB_TIP	THUMB_IP	THUMB_MCP	THUMB_CMC	INDEX_TIP	INDEX_DIP	INDEX_PIP	INDEX_MCP	MIDDLE_TIP	MIDDLE_DIP	MIDDLE_PIP	MIDDLE_MCP	RING_TIP	RING_DIP	RING_PIP	RING_MCP	PINKY_TIP	PINKY_DIP	PINKY_PIP	PINKY_MCP	WRIST
X1	Y1	Z1	X2	Y2	Z2	X3	Y3	Z3	X4	Y4	Z4	X5	Y5	Z5	X6	Y6	Z6	X7	Y7	Z7	X8	Y8	Z8	X9	Y9	Z9	X10	Y10	Z10	X11	Y11	Z11	X12	Y12	Z12	X13	Y13	Z13	X14	Y14	Z14	X15	Y15	Z15	X16	Y16	Z16	X17	Y17	Z17	X18	Y18	Z18	X19	Y19	Z19	X20	Y20	Z20	X21	Y21	Z21
50	1.6999999999999926	0.4846526931090295	-0.017413328379542792	-0.17198611813984016	0.48617253497955026	-0.020985994690706167	-0.14933824547776237	0.4804896341123025	-0.026391028007882622	-0.11921665434161474	0.47879661917486116	-0.028688606337065825	-0.07469986161973427	0.5598611314447118	0.05770725735775439	-0.1642162671582345	0.5489770990623073	0.04713962255905291	-0.15432369752946562	0.5323328734025824	0.034600931578689154	-0.14026095193384658	0.5090733662775515	0.01034470335090898	-0.11410245781697367	0.5740216321373205	0.07963136661919801	-0.1341541779957451	0.5627671047134644	0.06711714867509855	-0.12746613181518912	0.5418037322768156	0.050569679835743786	-0.11579874817133246	0.5151453769750917	0.02051981097697475	-0.09624151433886417	0.5749156621069714	0.08177489599511212	-0.10382594320146463	0.5623787888535596	0.07025362360070653	-0.09790250742129497	0.544138740583175	0.05518330135921179	-0.09013295108701497	0.5218939802942643	0.02361850302011348	-0.07815150795603287	0.5733695158804939	0.07261858423956291	-0.06400683846185612	0.5610416127575666	0.06090294524273088	-0.06206606349096805	0.5455872861433609	0.04678026504142041	-0.06047681466432955	0.5226795541160764	0.018972496036852138	-0.05878943582284343	0.4622830810018609	-0.023011742144276925	-0.051989820119430985
51	1.7333333333333258	0.48461066549926113	-0.017087182295511094	-0.1719633278791973	0.4861293632495438	-0.020731647005061582	-0.149326821211336	0.48049464520687024	-0.026226302621096154	-0.11921239423288016	0.4788075701656094	-0.028648180327563444	-0.07470196527314005	0.5593109179837418	0.05822236468854991	-0.16431942137524475	0.5485698449410108	0.04754580335748049	-0.15438763462589142	0.532078997544001	0.03487531304184677	-0.14026246346622148	0.509085214212993	0.010423616465673469	-0.11405108126929371	0.5736809168511255	0.08011570131686307	-0.13396082355169156	0.5624947952322438	0.06752289164790282	-0.12730561297884513	0.5416177622231028	0.050846095499246124	-0.11566759283144061	0.5151371680396464	0.02059847028700823	-0.09617381890972151	0.5747206138616033	0.08206528074733288	-0.10359426497632264	0.5622184188865506	0.07049127394834476	-0.09770041331355221	0.5440315954073451	0.05533757789999927	-0.0899683419991768	0.521891307394151	0.023669122958173805	-0.07806718901762139	0.5732889748938985	0.07274151947927299	-0.06356191245126955	0.5609716269075421	0.061000491505185384	-0.06170956240478967	0.5455368494183078	0.046844820792477426	-0.06022745258051532	0.5226765797353413	0.01898756953587344	-0.058722436484759666	0.4622830810018609	-0.023011742144276925	-0.051989820119430985
52	1.7666666666666588	0.4845681348718648	-0.016833877108094586	-0.17194836645808442	0.4860963947642798	-0.02053342007049086	-0.14932143994185998	0.480477907817341	-0.02609983219001588	-0.11921716017065993	0.4788056457717781	-0.02861574906801656	-0.07471138861332186	0.5591232048451357	0.05845546616053199	-0.16430518310011655	0.5484211574940515	0.04774255679685169	-0.1543704080417309	0.5319651615212218	0.03504152926558046	-0.14023202308473887	0.5090620043303259	0.01049464164479541	-0.11403027137189203	0.5736027135512543	0.0802998951047138	-0.13381500571836627	0.5624135542539108	0.06769768693576772	-0.12718273133583172	0.5415374255150108	0.05099804088001725	-0.11557589625948425	0.5151154096800886	0.020667321408575856	-0.09613181087179265	0.5747563414267871	0.08211170748009322	-0.10343623496120889	0.5622384077416258	0.07054359676162159	-0.09756425483018921	0.54404339849231	0.05538594092928839	-0.08985925080125798	0.5218795406524208	0.02371139371960229	-0.0780183345058629	0.5733718556909538	0.07269320026036319	-0.06324975747675768	0.5610310930168971	0.060966837319261	-0.061461465331677734	0.5455774850020128	0.04682389922913066	-0.06005600437489661	0.5226777429166473	0.01899228746321624	-0.05868245061360125	0.462283081001861	-0.023011742144276925	-0.051989820119430985
54	1.8000000000000007	0.4845522946956834	-0.016622547692304535	-0.17193000895899613	0.48608630269063546	-0.020373288926168742	-0.14931190206058365	0.4804860659284784	-0.026011069750131788	-0.11921750431634001	0.47880886257945143	-0.02858953639129891	-0.07471549875809128	0.5591853927443807	0.05849098618727033	-0.16421996201328806	0.5484452774053662	0.047798049813105536	-0.15430476992222247	0.5319479610660799	0.03512601890886413	-0.14018853744455795	0.5090408159086277	0.010553211287192665	-0.1140145824449072	0.5736399115602133	0.080349204142806	-0.1336911184183729	0.5624221053892386	0.06776315111613151	-0.12707658185711795	0.5415064710258986	0.05108799102869621	-0.11550572081580054	0.5150923416586051	0.020723316826798288	-0.09610396183934497	0.5748689811325652	0.08206834653963369	-0.10330933338271578	0.5623160490701244	0.07052824905781507	-0.09745697943358839	0.5440843143772202	0.055401980502157055	-0.08977714683973123	0.5218652311281119	0.023747429921271657	-0.0779863622563641	0.5735423549613233	0.07254806777030309	-0.06310737231569558	0.5611570397559378	0.06086465349525427	-0.06134618006587464	0.5456570491938808	0.04676936068482607	-0.059973215330553636	0.5226704439690565	0.019006603060413796	-0.05865840723572857	0.4622830810018609	-0.023011742144276925	-0.051989820119430985
55	1.833333333333334	0.4845318909875509	-0.01645376676958843	-0.17191629071377257	0.4860736885354576	-0.020247902152026542	-0.14930595243631634	0.4804907895800232	-0.02594918529224166	-0.1192202978845452	0.47880818420349414	-0.028569366883699154	-0.0747209328601467	0.55934284269894	0.05841861045691765	-0.1641318093972912	0.5485338235060162	0.04777325133209154	-0.15424032653623915	0.5319633879347174	0.035163346870986656	-0.1401541344511066	0.5090115285425995	0.010597917933457324	-0.1140124446518674	0.5737601907142008	0.08028366350219451	-0.1336079685860861	0.562489678662545	0.06773910548587359	-0.1270042103933112	0.5415069466260891	0.051126844090110035	-0.11546439767363859	0.5150669071373485	0.020765817909768725	-0.09609224440895323	0.5750532614689952	0.08193462759601688	-0.1032256440146972	0.5624476086229554	0.07044462028747944	-0.09738807188453089	0.5441574425266819	0.05537991557462574	-0.08972618731967075	0.5218510054097766	0.02377261209268733	-0.07797365296531938	0.5737521800510971	0.07235429883679434	-0.06304735677074197	0.561313337248273	0.060726039058967674	-0.061298424449007266	0.5457566890903175	0.04669190314153415	-0.05993984204790573	0.5226655199568383	0.019014823607853892	-0.058651188667277726	0.4622830810018608	-0.023011742144276925	-0.051989820119430985
56	1.8666666666666674	0.484510509930662	-0.016329658317897677	-0.17190609101060533	0.48606111371327243	-0.020158581521907748	-0.14930222021361245	0.48049388040112073	-0.025916162943743326	-0.11922438502856295	0.478805087322129	-0.028556103721010917	-0.07472642225914092	0.5595178731818259	0.05829785651083297	-0.16406298032670633	0.5486337819868885	0.04770866953332309	-0.15419354883266245	0.5319851989546537	0.03517042569359108	-0.1401355632929701	0.5089788812484227	0.010626558260298125	-0.1140215055650545	0.5739038937763901	0.08016295419140818	-0.13356556013219742	0.5625735229590686	0.06767009553865777	-0.12696622836114735	0.5415176167249316	0.05113412988481192	-0.11545014384625868	0.5150415655228933	0.02079375534507999	-0.09609482657849357	0.5752523960297768	0.08176478518768682	-0.10318139277254343	0.5625897449357046	0.07033230599289642	-0.09735424194812892	0.5442364393060972	0.055339284117275844	-0.08970274232365069	0.5218378660914371	0.023786746675130033	-0.07797831769343985	0.5739521733222841	0.07216108004260935	-0.06304421170030428	0.5614627875746708	0.06058667607078139	-0.06129824023884045	0.5458527679214431	0.04661162442576372	-0.05994279310046255	0.5226633232054093	0.01901655168404892	-0.05866019217207999	0.462283081001861	-0.023011742144276925	-0.051989820119430985
